<svg width="1920" height="1118" viewBox="0 0 1920 1118" fill="none" xmlns="http://www.w3.org/2000/svg">
<g clip-path="url(#clip0_19_230)">
<rect width="1920" height="1084" fill="white"/>
<rect width="1920" height="1084" fill="url(#paint0_linear_19_230)"/>
</g>
<path d="M0 888.444L621.111 1032.89H0V888.444Z" fill="white"/>
<path d="M414.722 739.888C416.269 738.995 418.175 738.995 419.722 739.888L433.486 747.834C435.033 748.728 435.986 750.378 435.986 752.165V768.058C435.986 769.844 435.033 771.495 433.486 772.388L419.722 780.334C418.175 781.228 416.269 781.228 414.722 780.334L400.958 772.388C399.411 771.495 398.458 769.844 398.458 768.058V752.165C398.458 750.378 399.411 748.728 400.958 747.834L414.722 739.888Z" stroke="white" stroke-width="6"/>
<path d="M417.778 782.889V1006.22" stroke="white" stroke-width="6" stroke-linecap="round"/>
<path d="M239.167 656.555C240.714 655.661 242.62 655.661 244.167 656.555L257.931 664.501C259.478 665.394 260.431 667.045 260.431 668.831V684.724C260.431 686.511 259.478 688.161 257.931 689.055L244.167 697.001C242.62 697.894 240.714 697.894 239.167 697.001L225.403 689.055C223.856 688.161 222.903 686.511 222.903 684.724V668.831C222.903 667.045 223.856 665.394 225.403 664.501L239.167 656.555Z" stroke="white" stroke-width="6"/>
<path d="M242.222 699.556L241.111 1006.22" stroke="white" stroke-width="6" stroke-linecap="round"/>
<path d="M63.6111 552.11C65.1581 551.217 67.0641 551.217 68.6111 552.11L82.375 560.057C83.922 560.95 84.875 562.6 84.875 564.387V580.28C84.875 582.066 83.922 583.717 82.375 584.61L68.6111 592.557C67.0641 593.45 65.1581 593.45 63.6111 592.557L49.8472 584.61C48.3002 583.717 47.3472 582.066 47.3472 580.28V564.387C47.3472 562.6 48.3002 560.95 49.8472 560.057L63.6111 552.11Z" stroke="white" stroke-width="6"/>
<path d="M66.6667 595.111L65.5519 939.556" stroke="white" stroke-width="6" stroke-linecap="round"/>
<path d="M502.879 897.232C504.05 896.061 505.95 896.061 507.121 897.232L524.545 914.656C525.717 915.828 525.717 917.728 524.545 918.899L507.121 936.323C505.95 937.495 504.05 937.495 502.879 936.323L485.455 918.899C484.283 917.728 484.283 915.828 485.455 914.656L502.879 897.232Z" fill="white" stroke="white" stroke-width="6"/>
<path d="M505.556 939.556L504.444 1018.44" stroke="white" stroke-width="6" stroke-linecap="round"/>
<path d="M327.323 800.566C328.495 799.394 330.394 799.394 331.566 800.566L348.99 817.99C350.161 819.161 350.161 821.061 348.99 822.232L331.566 839.656C330.394 840.828 328.495 840.828 327.323 839.656L309.899 822.232C308.728 821.061 308.728 819.161 309.899 817.99L327.323 800.566Z" fill="white" stroke="white" stroke-width="6"/>
<path d="M330 842.889L328.889 1006.22" stroke="white" stroke-width="6" stroke-linecap="round"/>
<path d="M151.768 728.344C152.939 727.172 154.839 727.172 156.01 728.344L173.434 745.768C174.606 746.939 174.606 748.839 173.434 750.01L156.01 767.434C154.839 768.606 152.939 768.606 151.768 767.434L134.344 750.01C133.172 748.839 133.172 746.939 134.344 745.768L151.768 728.344Z" fill="white" stroke="white" stroke-width="6"/>
<path d="M154.445 770.667V994" stroke="white" stroke-width="6" stroke-linecap="round"/>
<path d="M1920 888.444L1298.89 1032.89H1920V888.444Z" fill="white"/>
<path d="M1505.28 739.888C1503.73 738.995 1501.82 738.995 1500.28 739.888L1486.51 747.834C1484.97 748.728 1484.01 750.378 1484.01 752.165V768.058C1484.01 769.844 1484.97 771.495 1486.51 772.388L1500.28 780.334C1501.82 781.228 1503.73 781.228 1505.28 780.334L1519.04 772.388C1520.59 771.495 1521.54 769.844 1521.54 768.058V752.165C1521.54 750.378 1520.59 748.728 1519.04 747.834L1505.28 739.888Z" stroke="white" stroke-width="6"/>
<path d="M1502.22 782.889V1006.22" stroke="white" stroke-width="6" stroke-linecap="round"/>
<path d="M1680.83 656.555C1679.29 655.661 1677.38 655.661 1675.83 656.555L1662.07 664.501C1660.52 665.394 1659.57 667.045 1659.57 668.831V684.724C1659.57 686.511 1660.52 688.161 1662.07 689.055L1675.83 697.001C1677.38 697.894 1679.29 697.894 1680.83 697.001L1694.6 689.055C1696.14 688.161 1697.1 686.511 1697.1 684.724V668.831C1697.1 667.045 1696.14 665.394 1694.6 664.501L1680.83 656.555Z" stroke="white" stroke-width="6"/>
<path d="M1677.78 699.556L1678.89 1006.22" stroke="white" stroke-width="6" stroke-linecap="round"/>
<path d="M1856.39 552.11C1854.84 551.217 1852.94 551.217 1851.39 552.11L1837.63 560.057C1836.08 560.95 1835.13 562.6 1835.13 564.387V580.28C1835.13 582.066 1836.08 583.717 1837.63 584.61L1851.39 592.557C1852.94 593.45 1854.84 593.45 1856.39 592.557L1870.15 584.61C1871.7 583.717 1872.65 582.066 1872.65 580.28V564.387C1872.65 562.6 1871.7 560.95 1870.15 560.057L1856.39 552.11Z" stroke="white" stroke-width="6"/>
<path d="M1853.33 595.111L1854.45 939.556" stroke="white" stroke-width="6" stroke-linecap="round"/>
<path d="M1417.12 897.232C1415.95 896.061 1414.05 896.061 1412.88 897.232L1395.45 914.656C1394.28 915.828 1394.28 917.728 1395.45 918.899L1412.88 936.323C1414.05 937.495 1415.95 937.495 1417.12 936.323L1434.55 918.899C1435.72 917.728 1435.72 915.828 1434.55 914.656L1417.12 897.232Z" fill="white" stroke="white" stroke-width="6"/>
<path d="M1414.44 939.556L1415.56 1018.44" stroke="white" stroke-width="6" stroke-linecap="round"/>
<path d="M1592.68 800.566C1591.51 799.394 1589.61 799.394 1588.43 800.566L1571.01 817.99C1569.84 819.161 1569.84 821.061 1571.01 822.232L1588.43 839.656C1589.61 840.828 1591.51 840.828 1592.68 839.656L1610.1 822.232C1611.27 821.061 1611.27 819.161 1610.1 817.99L1592.68 800.566Z" fill="white" stroke="white" stroke-width="6"/>
<path d="M1590 842.889L1591.11 1006.22" stroke="white" stroke-width="6" stroke-linecap="round"/>
<path d="M1768.23 728.344C1767.06 727.172 1765.16 727.172 1763.99 728.344L1746.57 745.768C1745.39 746.939 1745.39 748.839 1746.57 750.01L1763.99 767.434C1765.16 768.606 1767.06 768.606 1768.23 767.434L1785.66 750.01C1786.83 748.839 1786.83 746.939 1785.66 745.768L1768.23 728.344Z" fill="white" stroke="white" stroke-width="6"/>
<path d="M1765.56 770.667V994" stroke="white" stroke-width="6" stroke-linecap="round"/>
<rect y="1027" width="1920" height="91" fill="white"/>
<defs>
<linearGradient id="paint0_linear_19_230" x1="0" y1="0" x2="1758.86" y2="1301.73" gradientUnits="userSpaceOnUse">
<stop stop-color="#0065C2"/>
<stop offset="1" stop-color="#87E9FF"/>
</linearGradient>
<clipPath id="clip0_19_230">
<rect width="1920" height="1084" fill="white"/>
</clipPath>
</defs>
</svg>
